<svg width="46" height="29" viewBox="0 0 46 29" fill="none" xmlns="http://www.w3.org/2000/svg">
<path d="M18.4865 13.2848C18.4865 13.2848 22.8197 12.9552 22.8197 7.76569C22.8197 2.58044 19.8808 0.0243576 15.3887 0.0243576L0 0V28.6557H15.7466C15.7466 28.6557 23.6199 28.905 23.6199 20.059C23.6199 20.059 24.1983 13.2848 18.4865 13.2848ZM5.72605 4.29835H13.5994C13.5994 4.29835 16.2935 4.34277 16.2935 7.83876C16.2935 11.4623 13.5994 11.4623 13.5994 11.4623H5.72605V4.29835ZM14.3151 24.3573H5.72605V15.7606H14.3151C14.3151 15.7606 18.6096 15.805 18.6096 20.059C18.6096 24.3129 14.9335 24.3573 14.3151 24.3573Z" fill="black"/>
<path d="M35.7881 7.16504C25.0332 7.16504 25.0518 17.9109 25.0518 17.9109C25.0518 17.9109 24.336 28.6568 35.7881 28.6568C35.7881 28.6568 45.8087 28.6568 45.8087 20.0601H40.0827C40.0827 20.0601 40.0827 24.3584 35.7881 24.3584C35.7881 24.3584 31.4936 24.3584 31.4936 18.6273C31.4936 18.6273 42.9457 18.6273 45.8087 18.6273C45.8087 15.7617 45.8087 7.16504 35.7881 7.16504ZM31.4936 15.7617C31.4936 15.7617 31.3991 11.4634 35.7881 11.4634C40.1757 11.4634 40.0827 15.7617 40.0827 15.7617H31.4936Z" fill="black"/>
<path d="M41.5146 2.86621H30.0625V5.73178H41.5146V2.86621Z" fill="black"/>
</svg>
