<svg width="54" height="40" viewBox="0 0 54 40" fill="none" xmlns="http://www.w3.org/2000/svg">
<path d="M3.63545 40H12.1182V19.3992L0 10.3105V36.3646C0 38.3762 1.62989 40 3.63545 40Z" fill="black"/>
<path d="M41.2012 40H49.6839C51.6955 40 53.3193 38.3702 53.3193 36.3646V10.3105L41.2012 19.3992" fill="black"/>
<path d="M41.2012 3.64576V19.3994L53.3193 10.3108V5.46349C53.3193 0.967648 48.1873 -1.59534 44.5943 1.10095" fill="black"/>
<path d="M12.1172 19.3991V3.64551L26.659 14.5519L41.2008 3.64551V19.3991L26.659 30.3055" fill="black"/>
<path d="M0 5.46349V10.3108L12.1182 19.3994V3.64576L8.72508 1.10095C5.12598 -1.59534 0 0.967648 0 5.46349Z" fill="black"/>
</svg>
