<svg width="46" height="46" viewBox="0 0 46 46" fill="none" xmlns="http://www.w3.org/2000/svg">
<path d="M15.2707 22.9108C15.2707 18.6932 18.6878 15.2733 22.9042 15.2733C27.1206 15.2733 30.5395 18.6932 30.5395 22.9108C30.5395 27.1284 27.1206 30.5483 22.9042 30.5483C18.6878 30.5483 15.2707 27.1284 15.2707 22.9108ZM11.1432 22.9108C11.1432 29.4083 16.4086 34.6752 22.9042 34.6752C29.3998 34.6752 34.6652 29.4083 34.6652 22.9108C34.6652 16.4133 29.3998 11.1464 22.9042 11.1464C16.4086 11.1464 11.1432 16.4133 11.1432 22.9108ZM32.3823 10.6799C32.3821 11.2237 32.5431 11.7553 32.8449 12.2075C33.1467 12.6598 33.5758 13.0123 34.078 13.2206C34.5801 13.4289 35.1327 13.4836 35.6659 13.3777C36.1991 13.2718 36.689 13.0102 37.0735 12.6258C37.4581 12.2415 37.72 11.7517 37.8263 11.2185C37.9325 10.6852 37.8783 10.1324 37.6705 9.62992C37.4627 9.12747 37.1106 8.69795 36.6587 8.39567C36.2068 8.09339 35.6755 7.93194 35.1319 7.93172H35.1308C34.4022 7.93206 33.7034 8.22167 33.1881 8.73696C32.6727 9.25224 32.3829 9.95105 32.3823 10.6799ZM13.6509 41.5596C11.4178 41.4579 10.2041 41.0858 9.3975 40.7715C8.32815 40.3551 7.56516 39.8591 6.76296 39.0578C5.96077 38.2565 5.46421 37.494 5.04973 36.4243C4.7353 35.6179 4.36334 34.4034 4.26183 32.1697C4.15079 29.7547 4.12862 29.0293 4.12862 22.911C4.12862 16.7927 4.15262 16.0693 4.26183 13.6523C4.36352 11.4186 4.73823 10.2065 5.04973 9.39764C5.46604 8.32798 5.96187 7.56478 6.76296 6.76235C7.56406 5.95992 8.32631 5.46322 9.3975 5.04862C10.2037 4.7341 11.4178 4.36203 13.6509 4.26049C16.0652 4.14942 16.7904 4.12724 22.9042 4.12724C29.018 4.12724 29.7439 4.15125 32.1602 4.26049C34.3933 4.36222 35.605 4.73704 36.4136 5.04862C37.483 5.46322 38.246 5.96102 39.0482 6.76235C39.8504 7.56368 40.3451 8.32798 40.7614 9.39764C41.0758 10.2041 41.4478 11.4186 41.5493 13.6523C41.6603 16.0693 41.6825 16.7927 41.6825 22.911C41.6825 29.0293 41.6603 29.7527 41.5493 32.1697C41.4476 34.4034 41.0738 35.6175 40.7614 36.4243C40.3451 37.494 39.8493 38.2572 39.0482 39.0578C38.2471 39.8584 37.483 40.3551 36.4136 40.7715C35.6074 41.086 34.3933 41.4581 32.1602 41.5596C29.7459 41.6707 29.0207 41.6929 22.9042 41.6929C16.7877 41.6929 16.0644 41.6707 13.6509 41.5596ZM13.4612 0.138748C11.023 0.249819 9.35682 0.636554 7.90176 1.20291C6.39485 1.78778 5.11918 2.57242 3.84442 3.84553C2.56967 5.11864 1.78726 6.39669 1.20256 7.90404C0.63637 9.36044 0.249747 11.0261 0.138708 13.4651C0.0258359 15.908 0 16.689 0 22.9108C0 29.1326 0.0258359 29.9136 0.138708 32.3565C0.249747 34.7956 0.63637 36.4612 1.20256 37.9176C1.78726 39.424 2.56985 40.7035 3.84442 41.9761C5.11899 43.2486 6.39485 44.0322 7.90176 44.6187C9.35957 45.185 11.023 45.5718 13.4612 45.6828C15.9047 45.7939 16.6841 45.8216 22.9042 45.8216C29.1242 45.8216 29.905 45.7958 32.3471 45.6828C34.7856 45.5718 36.4506 45.185 37.9066 44.6187C39.4126 44.0322 40.6892 43.2492 41.9639 41.9761C43.2387 40.703 44.0195 39.424 44.6058 37.9176C45.172 36.4612 45.5605 34.7955 45.6697 32.3565C45.7807 29.9118 45.8065 29.1326 45.8065 22.9108C45.8065 16.689 45.7807 15.908 45.6697 13.4651C45.5586 11.026 45.172 9.35952 44.6058 7.90404C44.0195 6.39761 43.2367 5.12066 41.9639 3.84553C40.6912 2.57041 39.4126 1.78778 37.9084 1.20291C36.4506 0.636554 34.7854 0.247986 32.349 0.138748C29.9068 0.0276762 29.1261 0 22.906 0C16.686 0 15.9047 0.0258434 13.4612 0.138748Z" fill="black"/>
<path d="M15.2707 22.9108C15.2707 18.6932 18.6878 15.2733 22.9042 15.2733C27.1206 15.2733 30.5395 18.6932 30.5395 22.9108C30.5395 27.1284 27.1206 30.5483 22.9042 30.5483C18.6878 30.5483 15.2707 27.1284 15.2707 22.9108ZM11.1432 22.9108C11.1432 29.4083 16.4086 34.6752 22.9042 34.6752C29.3998 34.6752 34.6652 29.4083 34.6652 22.9108C34.6652 16.4133 29.3998 11.1464 22.9042 11.1464C16.4086 11.1464 11.1432 16.4133 11.1432 22.9108ZM32.3823 10.6799C32.3821 11.2237 32.5431 11.7553 32.8449 12.2075C33.1467 12.6598 33.5758 13.0123 34.078 13.2206C34.5801 13.4289 35.1327 13.4836 35.6659 13.3777C36.1991 13.2718 36.689 13.0102 37.0735 12.6258C37.4581 12.2415 37.72 11.7517 37.8263 11.2185C37.9325 10.6852 37.8783 10.1324 37.6705 9.62992C37.4627 9.12747 37.1106 8.69795 36.6587 8.39567C36.2068 8.09339 35.6755 7.93194 35.1319 7.93172H35.1308C34.4022 7.93206 33.7034 8.22167 33.1881 8.73696C32.6727 9.25224 32.3829 9.95105 32.3823 10.6799ZM13.6509 41.5596C11.4178 41.4579 10.2041 41.0858 9.3975 40.7715C8.32815 40.3551 7.56516 39.8591 6.76296 39.0578C5.96077 38.2565 5.46421 37.494 5.04973 36.4243C4.7353 35.6179 4.36334 34.4034 4.26183 32.1697C4.15079 29.7547 4.12862 29.0293 4.12862 22.911C4.12862 16.7927 4.15262 16.0693 4.26183 13.6523C4.36352 11.4186 4.73823 10.2065 5.04973 9.39764C5.46604 8.32798 5.96187 7.56478 6.76296 6.76235C7.56406 5.95992 8.32631 5.46322 9.3975 5.04862C10.2037 4.7341 11.4178 4.36203 13.6509 4.26049C16.0652 4.14942 16.7904 4.12724 22.9042 4.12724C29.018 4.12724 29.7439 4.15125 32.1602 4.26049C34.3933 4.36222 35.605 4.73704 36.4136 5.04862C37.483 5.46322 38.246 5.96102 39.0482 6.76235C39.8504 7.56368 40.3451 8.32798 40.7614 9.39764C41.0758 10.2041 41.4478 11.4186 41.5493 13.6523C41.6603 16.0693 41.6825 16.7927 41.6825 22.911C41.6825 29.0293 41.6603 29.7527 41.5493 32.1697C41.4476 34.4034 41.0738 35.6175 40.7614 36.4243C40.3451 37.494 39.8493 38.2572 39.0482 39.0578C38.2471 39.8584 37.483 40.3551 36.4136 40.7715C35.6074 41.086 34.3933 41.4581 32.1602 41.5596C29.7459 41.6707 29.0207 41.6929 22.9042 41.6929C16.7877 41.6929 16.0644 41.6707 13.6509 41.5596ZM13.4612 0.138748C11.023 0.249819 9.35682 0.636554 7.90176 1.20291C6.39485 1.78778 5.11918 2.57242 3.84442 3.84553C2.56967 5.11864 1.78726 6.39669 1.20256 7.90404C0.63637 9.36044 0.249747 11.0261 0.138708 13.4651C0.0258359 15.908 0 16.689 0 22.9108C0 29.1326 0.0258359 29.9136 0.138708 32.3565C0.249747 34.7956 0.63637 36.4612 1.20256 37.9176C1.78726 39.424 2.56985 40.7035 3.84442 41.9761C5.11899 43.2486 6.39485 44.0322 7.90176 44.6187C9.35957 45.185 11.023 45.5718 13.4612 45.6828C15.9047 45.7939 16.6841 45.8216 22.9042 45.8216C29.1242 45.8216 29.905 45.7958 32.3471 45.6828C34.7856 45.5718 36.4506 45.185 37.9066 44.6187C39.4126 44.0322 40.6892 43.2492 41.9639 41.9761C43.2387 40.703 44.0195 39.424 44.6058 37.9176C45.172 36.4612 45.5605 34.7955 45.6697 32.3565C45.7807 29.9118 45.8065 29.1326 45.8065 22.9108C45.8065 16.689 45.7807 15.908 45.6697 13.4651C45.5586 11.026 45.172 9.35952 44.6058 7.90404C44.0195 6.39761 43.2367 5.12066 41.9639 3.84553C40.6912 2.57041 39.4126 1.78778 37.9084 1.20291C36.4506 0.636554 34.7854 0.247986 32.349 0.138748C29.9068 0.0276762 29.1261 0 22.906 0C16.686 0 15.9047 0.0258434 13.4612 0.138748Z" fill="black"/>
</svg>
