<svg width="35" height="46" viewBox="0 0 35 46" fill="none" xmlns="http://www.w3.org/2000/svg">
<path d="M15.1587 0.153237C7.72716 1.00326 0.321789 7.16365 0.0161426 15.9636C-0.175978 21.3366 1.31295 25.3675 6.30372 26.4993C8.46944 22.5848 5.6051 21.7213 5.15973 18.8894C3.33022 7.28445 18.2239 -0.629675 26.0179 7.47234C31.4104 13.0825 27.8605 30.3423 19.1627 28.5483C10.8316 26.8349 23.2409 13.0959 16.5909 10.3982C11.1853 8.20604 8.31225 17.1044 10.8753 21.5245C9.37328 29.1254 6.1378 36.288 7.44771 45.8216C11.6962 42.6631 13.1284 36.6146 14.3029 30.3065C16.4381 31.6352 17.5777 33.0176 20.3023 33.2324C30.3493 34.0287 35.9601 22.9561 34.5891 12.7425C33.3709 3.68752 24.5508 -0.920471 15.1587 0.153237Z" fill="black"/>
</svg>
