<svg width="35" height="46" viewBox="0 0 35 46" fill="none" xmlns="http://www.w3.org/2000/svg">
<path d="M15.1587 0.153101C7.72716 1.00236 0.321789 7.15729 0.0161426 15.9494C-0.175978 21.3176 1.31295 25.3449 6.30372 26.4758C8.46944 22.5647 5.6051 21.702 5.15973 18.8727C3.33022 7.27798 18.2239 -0.629116 26.0179 7.46571C31.4104 13.0708 27.8605 30.3154 19.1627 28.523C10.8316 26.811 23.2409 13.0843 16.5909 10.389C11.1853 8.19876 8.31225 17.0892 10.8753 21.5054C9.37328 29.0996 6.1378 36.2557 7.44771 45.7809C11.6962 42.6252 13.1284 36.582 14.3029 30.2796C16.4381 31.6071 17.5777 32.9883 20.3023 33.2029C30.3493 33.9985 35.9601 22.9357 34.5891 12.7311C33.3709 3.68425 24.5508 -0.919653 15.1587 0.153101Z" fill="#FF0000"/>
</svg>
