<svg width="51" height="51" viewBox="0 0 51 51" fill="none" xmlns="http://www.w3.org/2000/svg">
<path d="M25.015 50.03C38.8304 50.03 50.03 38.8304 50.03 25.015C50.03 11.1996 38.8304 0 25.015 0C11.1996 0 0 11.1996 0 25.015C0 38.8304 11.1996 50.03 25.015 50.03Z" fill="#34AADF"/>
<path d="M10.7255 24.4671C10.7255 24.4671 23.1166 19.1955 27.4141 17.3392C29.0615 16.5968 34.6483 14.2208 34.6483 14.2208C34.6483 14.2208 37.2268 13.1814 37.0119 15.7058C36.9402 16.7453 36.3673 20.3834 35.7943 24.3186C34.9347 29.8873 34.0036 35.9757 34.0036 35.9757C34.0036 35.9757 33.8604 37.6834 32.6428 37.9804C31.4252 38.2774 29.4196 36.941 29.0615 36.6439C28.7749 36.4212 23.6896 33.08 21.8274 31.4465C21.326 31.001 20.753 30.1101 21.8989 29.0706C24.4775 26.6204 27.5573 23.5762 29.4196 21.6457C30.2791 20.7547 31.1386 18.6757 27.5573 21.2002C22.472 24.8384 17.4582 28.2538 17.4582 28.2538C17.4582 28.2538 16.3122 28.9963 14.1635 28.328C12.0147 27.6599 9.50777 26.7688 9.50777 26.7688C9.50777 26.7688 7.78887 25.6551 10.7255 24.4671Z" fill="white"/>
</svg>
