<svg width="43" height="36" viewBox="0 0 43 36" fill="none" xmlns="http://www.w3.org/2000/svg">
<path d="M2.58221 15.5652C2.58221 15.5652 21.2102 7.71944 27.6707 4.95675C30.1473 3.85176 38.546 0.315499 38.546 0.315499C38.546 0.315499 42.4224 -1.23148 42.0993 2.52562C41.9916 4.07276 41.1302 9.48742 40.2688 15.3442C38.9767 23.6322 37.5769 32.6935 37.5769 32.6935C37.5769 32.6935 37.3615 35.2352 35.5311 35.6772C33.7006 36.1192 30.6856 34.1302 30.1473 33.6881C29.7165 33.3566 22.0715 28.3838 19.272 25.9527C18.5182 25.2897 17.6569 23.9637 19.3796 22.4166C23.256 18.7699 27.886 14.2392 30.6856 11.3661C31.9778 10.04 33.2698 6.94587 27.886 10.703C20.2411 16.1178 12.7038 21.201 12.7038 21.201C12.7038 21.201 10.9809 22.306 7.75065 21.3115C4.52027 20.317 0.751601 18.9909 0.751601 18.9909C0.751601 18.9909 -1.83247 17.3334 2.58221 15.5652Z" fill="black"/>
</svg>
