<svg width="53" height="37" viewBox="0 0 53 37" fill="none" xmlns="http://www.w3.org/2000/svg">
<path d="M51.1026 5.71845C50.5048 3.47102 48.7363 1.69806 46.4863 1.09042C42.4181 3.9691e-07 26.0951 0 26.0951 0C26.0951 0 9.78048 3.9691e-07 5.7039 1.09042C3.46219 1.68973 1.69373 3.4627 1.08764 5.71845C0 9.79711 0 18.3124 0 18.3124C0 18.3124 0 26.8276 1.08764 30.9063C1.68543 33.1537 3.45389 34.9267 5.7039 35.5343C9.78048 36.6247 26.0951 36.6247 26.0951 36.6247C26.0951 36.6247 42.4181 36.6247 46.4863 35.5343C48.728 34.935 50.4965 33.162 51.1026 30.9063C52.1902 26.8276 52.1902 18.3124 52.1902 18.3124C52.1902 18.3124 52.1902 9.79711 51.1026 5.71845Z" fill="#FF3000"/>
<path d="M20.8811 26.1617L34.4392 18.3124L20.8811 10.463V26.1617Z" fill="white"/>
</svg>
