<svg width="16" height="22" viewBox="0 0 16 22" fill="none" xmlns="http://www.w3.org/2000/svg">
<g filter="url(#filter0_d_2_316)">
<path d="M10.7231 15.8296C10.8985 16.2505 10.7299 17.8447 9.8 18.2142C8.87008 18.5838 7.68197 18.2142 7.68197 18.2142L5.52605 13.9024L1.8 17.6284V0.800003L13.2142 12.2142H8.96151C9.17022 12.6144 10.5003 15.2948 10.7231 15.8296Z" fill="white"/>
<path fill-rule="evenodd" clip-rule="evenodd" d="M2.8 3.21422V15.2142L5.8 12.2142L8.3 17.2142C8.3 17.2142 8.97631 17.43 9.3 17.2142C9.62369 16.9984 9.94566 16.5638 9.8 16.2142C9.11233 14.5638 7.3 11.2142 7.3 11.2142H10.8L2.8 3.21422Z" fill="black"/>
</g>
<defs>
<filter id="filter0_d_2_316" x="2.38419e-07" y="3.09944e-06" width="15.0142" height="21.1784" filterUnits="userSpaceOnUse" color-interpolation-filters="sRGB">
<feFlood flood-opacity="0" result="BackgroundImageFix"/>
<feColorMatrix in="SourceAlpha" type="matrix" values="0 0 0 0 0 0 0 0 0 0 0 0 0 0 0 0 0 0 127 0" result="hardAlpha"/>
<feOffset dy="1"/>
<feGaussianBlur stdDeviation="0.9"/>
<feColorMatrix type="matrix" values="0 0 0 0 0 0 0 0 0 0 0 0 0 0 0 0 0 0 0.65 0"/>
<feBlend mode="normal" in2="BackgroundImageFix" result="effect1_dropShadow_2_316"/>
<feBlend mode="normal" in="SourceGraphic" in2="effect1_dropShadow_2_316" result="shape"/>
</filter>
</defs>
</svg>
