<svg width="18" height="18" viewBox="0 0 18 18" fill="none" xmlns="http://www.w3.org/2000/svg">
<g filter="url(#filter0_d_2_129)">
<path d="M5.15853 8.29484C5.05853 7.92484 4.95853 7.44484 4.74853 6.74484C4.53853 6.04484 4.40853 5.88484 4.27853 5.51484C4.14853 5.14484 3.97853 4.79484 3.77853 4.33484C3.59533 3.8649 3.4417 3.38396 3.31853 2.89484C3.23529 2.48264 3.3377 2.0547 3.59853 1.72484C3.95739 1.37466 4.47521 1.2414 4.95853 1.37484C5.33718 1.54043 5.6576 1.81557 5.87853 2.16484C6.17356 2.63651 6.41506 3.13962 6.59853 3.66484C6.88027 4.38447 7.08475 5.132 7.20853 5.89484L7.29853 6.34484C7.29853 6.34484 7.29853 5.22484 7.29853 5.18484C7.29853 4.18484 7.23853 3.36484 7.29853 2.24484C7.29853 2.11484 7.35853 1.65484 7.37853 1.52484C7.40438 1.0948 7.66065 0.712319 8.04853 0.52484C8.49381 0.325053 9.00324 0.325053 9.44853 0.52484C9.84714 0.703272 10.1132 1.08885 10.1385 1.52484C10.1385 1.63484 10.2285 2.52484 10.2285 2.63484C10.2285 3.63484 10.2285 4.27484 10.2285 4.80484C10.2285 5.03484 10.2285 6.43484 10.2285 6.27484C10.2521 4.9553 10.3657 3.63891 10.5685 2.33484C10.687 1.92628 10.9745 1.58785 11.3585 1.40484C11.8335 1.21778 12.373 1.31027 12.7585 1.64484C13.0467 1.96113 13.2163 2.36753 13.2385 2.79484C13.2385 3.20484 13.2385 3.69484 13.2385 4.04484C13.2385 4.91484 13.2385 5.36484 13.2385 6.16484C13.2385 6.16484 13.2385 6.46484 13.2385 6.34484C13.3285 6.06484 13.4285 5.80484 13.5085 5.60484C13.5885 5.40484 13.7485 4.99484 13.8685 4.74484C13.9906 4.5065 14.1276 4.27605 14.2785 4.05484C14.4354 3.80057 14.6705 3.60406 14.9485 3.49484C15.199 3.39802 15.4779 3.40599 15.7224 3.51697C15.9669 3.62794 16.1565 3.83258 16.2485 4.08484C16.3081 4.44909 16.3081 4.82059 16.2485 5.18484C16.1819 5.74427 16.0647 6.29652 15.8985 6.83484C15.7685 7.28484 15.6285 8.06484 15.5585 8.43484C15.4885 8.80484 15.3285 9.81484 15.1985 10.2548C15.0061 10.7797 14.7401 11.2747 14.4085 11.7248C13.9233 12.2651 13.5222 12.8752 13.2185 13.5348C13.1438 13.8627 13.1102 14.1986 13.1185 14.5348C13.1169 14.8455 13.1573 15.155 13.2385 15.4548C12.8297 15.4984 12.4174 15.4984 12.0085 15.4548C11.6185 15.3948 11.1385 14.6148 11.0085 14.3748C10.9442 14.246 10.8126 14.1645 10.6685 14.1645C10.5245 14.1645 10.3929 14.246 10.3285 14.3748C10.0985 14.7548 9.61853 15.4448 9.27853 15.4848C8.60853 15.5648 7.22853 15.4848 6.13853 15.4848C6.13853 15.4848 6.32853 14.4848 5.90853 14.1248C5.48853 13.7648 5.07853 13.3448 4.76853 13.0648L3.93853 12.1448C3.65853 11.7848 3.30853 11.0548 2.69853 10.1448C2.34853 9.64484 1.69853 9.05484 1.41853 8.56484C1.18345 8.16716 1.11515 7.69267 1.22853 7.24484C1.39833 6.6502 1.98919 6.2793 2.59853 6.38484C3.06203 6.41538 3.50044 6.6063 3.83853 6.92484C4.10624 7.15648 4.35689 7.40713 4.58853 7.67484C4.74853 7.86484 4.78853 7.95484 4.96853 8.18484C5.14853 8.41484 5.26853 8.64484 5.17853 8.30484" fill="white"/>
<path d="M5.15853 8.29484C5.05853 7.92484 4.95853 7.44484 4.74853 6.74484C4.53853 6.04484 4.40853 5.88484 4.27853 5.51484C4.14853 5.14484 3.97853 4.79484 3.77853 4.33484C3.59533 3.8649 3.4417 3.38396 3.31853 2.89484C3.23529 2.48264 3.3377 2.0547 3.59853 1.72484C3.95739 1.37466 4.47521 1.2414 4.95853 1.37484C5.33718 1.54043 5.6576 1.81557 5.87853 2.16484C6.17356 2.63651 6.41506 3.13962 6.59853 3.66484C6.88027 4.38447 7.08475 5.132 7.20853 5.89484L7.29853 6.34484C7.29853 6.34484 7.29853 5.22484 7.29853 5.18484C7.29853 4.18484 7.23853 3.36484 7.29853 2.24484C7.29853 2.11484 7.35853 1.65484 7.37853 1.52484C7.40438 1.0948 7.66065 0.712319 8.04853 0.52484C8.49381 0.325053 9.00324 0.325053 9.44853 0.52484C9.84714 0.703272 10.1132 1.08885 10.1385 1.52484C10.1385 1.63484 10.2285 2.52484 10.2285 2.63484C10.2285 3.63484 10.2285 4.27484 10.2285 4.80484C10.2285 5.03484 10.2285 6.43484 10.2285 6.27484C10.2521 4.9553 10.3657 3.63891 10.5685 2.33484C10.687 1.92628 10.9745 1.58785 11.3585 1.40484C11.8335 1.21778 12.373 1.31027 12.7585 1.64484C13.0467 1.96113 13.2163 2.36753 13.2385 2.79484C13.2385 3.20484 13.2385 3.69484 13.2385 4.04484C13.2385 4.91484 13.2385 5.36484 13.2385 6.16484C13.2385 6.16484 13.2385 6.46484 13.2385 6.34484C13.3285 6.06484 13.4285 5.80484 13.5085 5.60484C13.5885 5.40484 13.7485 4.99484 13.8685 4.74484C13.9906 4.5065 14.1276 4.27605 14.2785 4.05484C14.4354 3.80057 14.6705 3.60406 14.9485 3.49484C15.199 3.39802 15.4779 3.40599 15.7224 3.51697C15.9669 3.62794 16.1565 3.83258 16.2485 4.08484C16.3081 4.44909 16.3081 4.82059 16.2485 5.18484C16.1819 5.74427 16.0647 6.29652 15.8985 6.83484C15.7685 7.28484 15.6285 8.06484 15.5585 8.43484C15.4885 8.80484 15.3285 9.81484 15.1985 10.2548C15.0061 10.7797 14.7401 11.2747 14.4085 11.7248C13.9233 12.2651 13.5222 12.8752 13.2185 13.5348C13.1438 13.8627 13.1102 14.1986 13.1185 14.5348C13.1169 14.8455 13.1573 15.155 13.2385 15.4548C12.8297 15.4984 12.4174 15.4984 12.0085 15.4548C11.6185 15.3948 11.1385 14.6148 11.0085 14.3748C10.9442 14.246 10.8126 14.1645 10.6685 14.1645C10.5245 14.1645 10.3929 14.246 10.3285 14.3748C10.0985 14.7548 9.61853 15.4448 9.27853 15.4848C8.60853 15.5648 7.22853 15.4848 6.13853 15.4848C6.13853 15.4848 6.32853 14.4848 5.90853 14.1248C5.48853 13.7648 5.07853 13.3448 4.76853 13.0648L3.93853 12.1448C3.65853 11.7848 3.30853 11.0548 2.69853 10.1448C2.34853 9.64484 1.69853 9.05484 1.41853 8.56484C1.18345 8.16716 1.11515 7.69267 1.22853 7.24484C1.39833 6.6502 1.98919 6.2793 2.59853 6.38484C3.06203 6.41538 3.50044 6.6063 3.83853 6.92484C4.10624 7.15648 4.35689 7.40713 4.58853 7.67484C4.74853 7.86484 4.78853 7.95484 4.96853 8.18484C5.14853 8.41484 5.26853 8.64484 5.17853 8.30484" stroke="black" stroke-width="0.75" stroke-linecap="round" stroke-linejoin="round"/>
<path d="M12.5285 12.4557V9.00395C12.5285 8.79733 12.3606 8.62984 12.1535 8.62984C11.9464 8.62984 11.7785 8.79733 11.7785 9.00395V12.4557C11.7785 12.6623 11.9464 12.8298 12.1535 12.8298C12.3606 12.8298 12.5285 12.6623 12.5285 12.4557Z" fill="black"/>
<path d="M10.5385 12.4555L10.5285 9.00198C10.5279 8.79586 10.3596 8.62924 10.1524 8.62984C9.94534 8.63043 9.77793 8.79801 9.77853 9.00414L9.78853 12.4577C9.78912 12.6638 9.9575 12.8304 10.1646 12.8298C10.3717 12.8292 10.5391 12.6617 10.5385 12.4555Z" fill="black"/>
<path d="M7.78354 9.00474L7.80354 12.4493C7.80475 12.6579 7.97362 12.826 8.18072 12.8248C8.38783 12.8236 8.55474 12.6535 8.55352 12.4449L8.53352 9.00032C8.53231 8.79173 8.36344 8.62362 8.15634 8.62484C7.94924 8.62606 7.78233 8.79615 7.78354 9.00474Z" fill="black"/>
</g>
<defs>
<filter id="filter0_d_2_129" x="3.03984e-06" y="0" width="17.4682" height="17.6954" filterUnits="userSpaceOnUse" color-interpolation-filters="sRGB">
<feFlood flood-opacity="0" result="BackgroundImageFix"/>
<feColorMatrix in="SourceAlpha" type="matrix" values="0 0 0 0 0 0 0 0 0 0 0 0 0 0 0 0 0 0 127 0" result="hardAlpha"/>
<feOffset dy="1"/>
<feGaussianBlur stdDeviation="0.4"/>
<feColorMatrix type="matrix" values="0 0 0 0 0 0 0 0 0 0 0 0 0 0 0 0 0 0 0.5 0"/>
<feBlend mode="normal" in2="BackgroundImageFix" result="effect1_dropShadow_2_129"/>
<feBlend mode="normal" in="SourceGraphic" in2="effect1_dropShadow_2_129" result="shape"/>
</filter>
</defs>
</svg>
