<svg width="23" height="23" viewBox="0 0 23 23" fill="none" xmlns="http://www.w3.org/2000/svg">
<path opacity="0.72" d="M11 0H12V11H11V0ZM11 12H12V23H11V12ZM0 11H11V12H0V11ZM12 11H23V12H12V11Z" fill="#231F20"/>
<path opacity="0.15" d="M17 11.5C17 14.5376 14.5376 17 11.5 17C8.46243 17 6 14.5376 6 11.5C6 8.46243 8.46243 6 11.5 6C14.5376 6 17 8.46243 17 11.5Z" fill="#231F20"/>
<path opacity="0.3" d="M11.5 17C14.5376 17 17 14.5376 17 11.5C17 8.46243 14.5376 6 11.5 6C8.46243 6 6 8.46243 6 11.5C6 14.5376 8.46243 17 11.5 17Z" stroke="#231F20"/>
</svg>
