<svg width="20" height="20" viewBox="0 0 20 20" fill="none" xmlns="http://www.w3.org/2000/svg">
<g filter="url(#filter0_d_2_157)">
<path d="M12.6887 10.2794L17.8045 15.3952L16.3903 16.8094L11.2737 11.6928C10.2934 12.39 9.09457 12.8 7.8 12.8C4.48629 12.8 1.8 10.1137 1.8 6.8C1.8 3.48629 4.48629 0.800003 7.8 0.800003C11.1137 0.800003 13.8 3.48629 13.8 6.8C13.8 8.0971 13.3884 9.29806 12.6887 10.2794Z" fill="black"/>
<path fill-rule="evenodd" clip-rule="evenodd" d="M7.8 11.8C10.5614 11.8 12.8 9.56143 12.8 6.8C12.8 4.03858 10.5614 1.8 7.8 1.8C5.03858 1.8 2.8 4.03858 2.8 6.8C2.8 9.56143 5.03858 11.8 7.8 11.8Z" fill="white"/>
<path d="M10.8 5.82001H4.82001V7.80001H10.8V5.82001Z" fill="black"/>
</g>
<defs>
<filter id="filter0_d_2_157" x="3.09944e-06" y="3.09944e-06" width="19.6045" height="19.6094" filterUnits="userSpaceOnUse" color-interpolation-filters="sRGB">
<feFlood flood-opacity="0" result="BackgroundImageFix"/>
<feColorMatrix in="SourceAlpha" type="matrix" values="0 0 0 0 0 0 0 0 0 0 0 0 0 0 0 0 0 0 127 0" result="hardAlpha"/>
<feOffset dy="1"/>
<feGaussianBlur stdDeviation="0.9"/>
<feColorMatrix type="matrix" values="0 0 0 0 0 0 0 0 0 0 0 0 0 0 0 0 0 0 0.65 0"/>
<feBlend mode="normal" in2="BackgroundImageFix" result="effect1_dropShadow_2_157"/>
<feBlend mode="normal" in="SourceGraphic" in2="effect1_dropShadow_2_157" result="shape"/>
</filter>
</defs>
</svg>
