<?xml version="1.0" encoding="utf-8"?>
<!-- Generator: Adobe Illustrator 25.4.1, SVG Export Plug-In . SVG Version: 6.00 Build 0)  -->
<svg version="1.1" id="Layer_1" xmlns="http://www.w3.org/2000/svg" xmlns:xlink="http://www.w3.org/1999/xlink" x="0px" y="0px"
	 viewBox="0 0 357.6 357.6" style="enable-background:new 0 0 357.6 357.6;" xml:space="preserve">
<path d="M277.06,122.31l66.89-45.47l-8.63-12.69l-71.72,48.76c-26.65-16.37-61.74-26.34-100.18-26.34
	c-83.08,0-150.68,46.54-150.68,103.75s67.6,103.75,150.68,103.75s150.68-46.54,150.68-103.75
	C314.09,164.32,300.09,140.54,277.06,122.31z M163.41,278.72c-74.62,0-135.33-39.66-135.33-88.4c0-48.74,60.71-88.4,135.33-88.4
	c32.8,0,62.9,7.66,86.35,20.39l-102.49,69.68c0.06-21.25-9.76-43.78-19.88-61.56c-3.15,36.72-10.38,74.68-31.19,105.56
	c36.72-7.49,74.84-2.25,109.64,9.82c-11.08-15.33-30.46-33.64-49.83-41.2l107.95-73.39c21.61,15.67,34.79,36.4,34.79,59.1
	C298.74,239.07,238.04,278.72,163.41,278.72z"/>
</svg>
