<?xml version="1.0" encoding="UTF-8"?>
<svg id="Layer_1" xmlns="http://www.w3.org/2000/svg" version="1.1" viewBox="0 0 91.58 62.21">
  <!-- Generator: Adobe Illustrator 29.7.1, SVG Export Plug-In . SVG Version: 2.1.1 Build 8)  -->
  <defs>
    <style>
      .st0 {
        fill: #010101;
      }
    </style>
  </defs>
  <path class="st0" d="M3.51,24.73c6.44,1.47,9.18,2.55,12.71,6.02,1.39,1.37,2.59,2.84,3.57,4.37-6.22,3.69-10.51,10.48-11.07,17.7-.12,1.55-.11,3.8,1.33,5.54,1.12,1.35,2.7,1.91,4.36,1.91,1.79,0,3.68-.66,5.17-1.7,4.62-3.21,7.22-9.27,6.61-15.43-.22-2.19-.81-4.39-1.76-6.51,5.54-2.05,12.04-1.44,17.05,1.73,1.85,1.17,3.53,2.66,5.31,4.24,3.19,2.84,6.5,5.77,10.9,6.72,4.56.99,9.54-.27,13-3.27,7.9-6.86,9.41-17.39,4.51-31.33,4.51.86,10.3-.33,14.18-1.92-7.91-1.77-15.64-5.21-21.64-10.86.32,8.19-2.73,16.12-6.4,23.36,3.92-2.14,8.33-5.19,10.79-9.13,4.25,12.34,3.02,21.52-3.66,27.33-2.67,2.32-6.54,3.29-10.07,2.52-3.54-.77-6.37-3.28-9.37-5.95-1.8-1.6-3.66-3.25-5.74-4.57-6.01-3.81-13.84-4.49-20.45-1.88-1.15-1.86-2.58-3.64-4.25-5.28-4.14-4.07-7.61-5.37-14.32-6.9-.91-.21-1.81.36-2.02,1.27-.22.9.35,1.81,1.26,2.02ZM22.83,43.46c.49,4.96-1.54,9.8-5.18,12.32-1.64,1.14-4.04,1.57-5.01.4-.49-.59-.68-1.61-.56-3.11.47-6.1,4.07-11.84,9.3-14.99.78,1.78,1.27,3.59,1.45,5.38Z"/>
</svg>