<?xml version="1.0" encoding="UTF-8"?>
<svg id="Layer_2" xmlns="http://www.w3.org/2000/svg" version="1.1" viewBox="0 0 204.2 59.69">
  <!-- Generator: Adobe Illustrator 29.7.1, SVG Export Plug-In . SVG Version: 2.1.1 Build 8)  -->
  <defs>
    <style>
      .st0 {
        fill: #010101;
      }
    </style>
  </defs>
  <g>
    <path class="st0" d="M113.38,30.82c3.4-.8,6.74-2.61,6.74-7.24,0-5.31-4.16-7.99-12.35-7.99h-10.96c-.16,0-.3.06-.41.17-.11.11-.17.26-.16.42.04,1.12.09,2.09.13,3.01.09,2.12.17,3.94.21,6.55.1,5.56.1,8.78,0,14.34h0c-.03,2.61-.11,4.43-.21,6.55-.04.91-.09,1.89-.13,3.01,0,.16.05.31.16.42.11.11.26.17.41.17h11.97c8.11,0,12.4-3.53,12.4-10.19,0-4.97-2.56-8.01-7.8-9.22ZM115.29,24.3c0,1.38-.46,2.54-1.37,3.43-1.32,1.29-3.61,1.98-6.23,1.93h0l-6.27-.13c.04-3.17.09-6.43.25-9.69l6.12-.09c3.06-.07,5.22.48,6.41,1.65.73.72,1.09,1.67,1.09,2.9ZM101.41,32.32l6.81-.17h.23c2.34,0,4.38.74,5.76,2.09,1.35,1.32,2.04,3.15,2.04,5.43,0,1.95-.57,3.5-1.69,4.6-1.28,1.28-3.29,1.99-5.77,1.91l-7.12-.18c-.22-4.8-.26-9.56-.26-13.68Z"/>
    <path class="st0" d="M146.96,42.77c-.03-2.5-.02-3.61,0-5.08,0-.89,0-1.9,0-3.43.02-2.94-.77-5.25-2.35-6.84-1.8-1.81-4.65-2.73-8.47-2.73-4.36,0-8.13,1.17-11.21,3.46-.23.17-.3.49-.16.74l1.2,2.11c.09.15.23.25.4.28.17.04.35-.02.47-.13,2.36-2.04,5.47-3.21,8.53-3.21,4.47,0,7.04,2.58,7.04,7.1l.02,1.09c-1.81-2.41-4.88-3.79-8.64-3.79-6.27,0-10.48,3.71-10.48,9.24s4.21,9.19,10.48,9.19c3.67,0,6.69-1.32,8.51-3.62,0,.23-.02.46-.04.7l-.1,1.78c0,.16.05.31.16.42.11.11.26.18.42.18h3.97c.16,0,.31-.07.42-.18s.16-.27.16-.43l-.07-1.34c-.11-1.91-.19-3.33-.26-5.51ZM127.81,41.58c0-3.95,2.85-6.61,7.08-6.61,3.71,0,7.47,2.27,7.47,6.61s-3.76,6.56-7.47,6.56c-4.23-.01-7.08-2.64-7.08-6.56Z"/>
    <path class="st0" d="M173.23,40.53l-3.11-.62c-.15-.02-.31,0-.44.09s-.21.22-.24.37c-.79,4.26-3.53,6.9-7.14,6.9-4.31,0-7.32-3.94-7.32-9.57s3.01-9.57,7.32-9.57c3.01,0,5.43,1.85,6.64,5.08.05.14.16.26.3.32s.3.07.44.02l2.92-1.1c.14-.06.26-.17.32-.3.06-.14.07-.3,0-.44-1.75-4.46-5.63-7.01-10.63-7.01-6.96,0-11.63,5.23-11.63,13.02s4.67,13.02,11.63,13.02c5.8,0,10.16-3.64,11.38-9.5.03-.15,0-.3-.08-.43-.08-.16-.22-.25-.37-.28Z"/>
    <path class="st0" d="M198.94,49.33l-1.05-1.43c-1.38-1.88-2.42-3.29-3.92-5.46-.9-1.28-1.59-2.24-2.19-3.07-1.17-1.63-2.04-2.84-3.57-5.18,4.21-1.5,5.81-4.46,5.49-6.69-.25-1.71-1.59-2.82-3.41-2.82-3.42,0-6.2,3.66-8.16,7.45,0-2.01.02-4,.05-6.34l.02-1.78c.03-2.76.11-4.7.21-6.96.04-.99.08-2.05.13-3.27,0-.15-.05-.31-.16-.42s-.26-.17-.41-.17h-3.97c-.15,0-.3.06-.41.17s-.17.26-.16.42l.08,2.24c.1,2.76.18,4.83.25,7.99.05,6.04.05,9.35,0,15.4-.08,3.17-.15,5.24-.25,7.99l-.08,2.24c0,.15.05.31.16.42.11.11.26.17.41.17h3.97c.15,0,.3-.06.41-.17.11-.11.17-.26.16-.42-.04-1.22-.09-2.28-.13-3.27-.09-2.25-.17-4.2-.21-6.95,0-.68,0-1.31-.02-1.92,0-.51-.02-1.01-.02-1.49.38-.81.74-1.56,1.1-2.24,0,0,0,0,0,.02,3.86,5.31,7.45,10.92,10.75,16.19.11.17.29.27.49.27h3.97c.22,0,.41-.12.51-.31.09-.21.07-.44-.05-.61ZM188.71,27.79c.65,0,1,.25,1.03.74.09,1.16-1.58,3.6-6,4.32,1.89-3.4,3.52-5.06,4.97-5.06Z"/>
  </g>
  <path class="st0" d="M84.81,38.66c-.4-1.03-1.56-1.54-2.59-1.13-5.75,2.26-12.37,2.32-18.16.14-.89-.33-1.76-.72-2.61-1.16.74-.95,1.46-1.97,2.17-3.05,2.61-4,4.18-7.67,4.8-11.21.8-4.58-.07-9.13-2.38-12.47-2.75-3.97-7.53-6.08-11.91-5.25-4.56.86-8.35,4.83-9.43,9.88-1.09,5.1.62,9.91,2.24,13.04,2,3.88,4.91,7.28,8.4,9.92-1.28,1.23-2.61,2.24-3.99,3.05-6.36,3.73-15.19,3.7-23.62-.06-2.2-.98-4.41-2.22-6.7-3.72,5.29-1.63,9.85-5.44,13.67-9.31.37-.37-.01-.93-.49-.84-9.35,1.8-19.21,2.67-28.42-.32-.25-.08-.46.05-.56.25-.09.14-.11.32-.01.48,0,0,0,0,0,.01,3.44,6.69,5.06,14.16,5.33,21.65.08,2.1.04,4.19-.07,6.29-.02.41.58.7.85.35,2.06-2.62,3.75-5.53,5.03-8.61.92-2.21,1.66-4.58,1.9-6.98,2.67,1.8,5.25,3.25,7.83,4.41,4.75,2.12,9.65,3.18,14.29,3.18s9.21-1.11,12.99-3.32c1.9-1.11,3.69-2.52,5.39-4.26,1.25.7,2.55,1.31,3.89,1.81,6.7,2.52,14.37,2.46,21.03-.16,1.03-.41,1.53-1.57,1.13-2.59ZM48.61,15.24c.73-3.43,3.31-6.22,6.26-6.78.38-.07.77-.11,1.16-.11,2.5,0,5.13,1.42,6.72,3.71,1.72,2.48,2.35,5.95,1.73,9.5-.52,2.99-1.9,6.17-4.21,9.71-.74,1.13-1.48,2.17-2.24,3.12-3.14-2.31-5.76-5.33-7.54-8.78-1.32-2.56-2.72-6.43-1.88-10.37Z"/>
</svg>