<?xml version="1.0" encoding="utf-8"?>
<!-- Generator: Adobe Illustrator 25.4.1, SVG Export Plug-In . SVG Version: 6.00 Build 0)  -->
<svg version="1.1" id="Layer_1" xmlns="http://www.w3.org/2000/svg" xmlns:xlink="http://www.w3.org/1999/xlink" x="0px" y="0px"
	 viewBox="0 0 209.8 64.42" style="enable-background:new 0 0 209.8 64.42;" xml:space="preserve">
<g>
	<path d="M121.01,31.05c3.4-0.8,6.74-2.61,6.74-7.24c0-5.31-4.16-7.99-12.35-7.99h-10.96c-0.16,0-0.3,0.06-0.41,0.17
		c-0.11,0.11-0.17,0.26-0.16,0.42c0.04,1.12,0.09,2.09,0.13,3.01c0.09,2.12,0.17,3.94,0.21,6.55c0.1,5.56,0.1,8.78,0,14.34
		c0,0,0,0,0,0c-0.03,2.61-0.11,4.43-0.21,6.55c-0.04,0.91-0.09,1.89-0.13,3.01c0,0.16,0.05,0.31,0.16,0.42
		c0.11,0.11,0.26,0.17,0.41,0.17h11.97c8.11,0,12.4-3.53,12.4-10.19C128.81,35.3,126.25,32.26,121.01,31.05z M122.92,24.53
		c0,1.38-0.46,2.54-1.37,3.43c-1.32,1.29-3.61,1.98-6.23,1.93h0l-6.27-0.13c0.04-3.17,0.09-6.43,0.25-9.69l6.12-0.09
		c3.06-0.07,5.22,0.48,6.41,1.65C122.56,22.35,122.92,23.3,122.92,24.53z M109.04,32.55l6.81-0.17c0.08,0,0.16,0,0.23,0
		c2.34,0,4.38,0.74,5.76,2.09c1.35,1.32,2.04,3.15,2.04,5.43c0,1.95-0.57,3.5-1.69,4.6c-1.28,1.28-3.29,1.99-5.77,1.91l-7.12-0.18
		C109.08,41.43,109.04,36.67,109.04,32.55z"/>
	<path d="M154.59,43c-0.03-2.5-0.02-3.61-0.01-5.08c0.01-0.89,0.01-1.9,0.01-3.43c0.02-2.94-0.77-5.25-2.35-6.84
		c-1.8-1.81-4.65-2.73-8.47-2.73c-4.36,0-8.13,1.17-11.21,3.46c-0.23,0.17-0.3,0.49-0.16,0.74l1.2,2.11
		c0.09,0.15,0.23,0.25,0.4,0.28c0.17,0.04,0.35-0.02,0.47-0.13c2.36-2.04,5.47-3.21,8.53-3.21c4.47,0,7.04,2.58,7.04,7.1l0.02,1.09
		c-1.81-2.41-4.88-3.79-8.64-3.79c-6.27,0-10.48,3.71-10.48,9.24c0,5.5,4.21,9.19,10.48,9.19c3.67,0,6.69-1.32,8.51-3.62
		c-0.01,0.23-0.02,0.46-0.04,0.7l-0.1,1.78c-0.01,0.16,0.05,0.31,0.16,0.42c0.11,0.11,0.26,0.18,0.42,0.18h3.97
		c0.16,0,0.31-0.07,0.42-0.18c0.11-0.11,0.16-0.27,0.16-0.43l-0.07-1.34C154.74,46.6,154.66,45.18,154.59,43z M135.44,41.81
		c0-3.95,2.85-6.61,7.08-6.61c3.71,0,7.47,2.27,7.47,6.61c0,4.31-3.76,6.56-7.47,6.56C138.29,48.36,135.44,45.73,135.44,41.81z"/>
	<path d="M180.86,40.76l-3.11-0.62c-0.15-0.02-0.31,0-0.44,0.09c-0.13,0.09-0.21,0.22-0.24,0.37c-0.79,4.26-3.53,6.9-7.14,6.9
		c-4.31,0-7.32-3.94-7.32-9.57s3.01-9.57,7.32-9.57c3.01,0,5.43,1.85,6.64,5.08c0.05,0.14,0.16,0.26,0.3,0.32
		c0.14,0.06,0.3,0.07,0.44,0.02l2.92-1.1c0.14-0.06,0.26-0.17,0.32-0.3c0.06-0.14,0.07-0.3,0.01-0.44
		c-1.75-4.46-5.63-7.01-10.63-7.01c-6.96,0-11.63,5.23-11.63,13.02s4.67,13.02,11.63,13.02c5.8,0,10.16-3.64,11.38-9.5
		c0.03-0.15,0-0.3-0.08-0.43C181.15,40.88,181.01,40.79,180.86,40.76z"/>
	<path d="M206.57,49.56l-1.05-1.43c-1.38-1.88-2.42-3.29-3.92-5.46c-0.9-1.28-1.59-2.24-2.19-3.07c-1.17-1.63-2.04-2.84-3.57-5.18
		c4.21-1.5,5.81-4.46,5.49-6.69c-0.25-1.71-1.59-2.82-3.41-2.82c-3.42,0-6.2,3.66-8.16,7.45c0-2.01,0.02-4,0.05-6.34l0.02-1.78
		c0.03-2.76,0.11-4.7,0.21-6.96c0.04-0.99,0.08-2.05,0.13-3.27c0-0.15-0.05-0.31-0.16-0.42c-0.11-0.11-0.26-0.17-0.41-0.17h-3.97
		c-0.15,0-0.3,0.06-0.41,0.17c-0.11,0.11-0.17,0.26-0.16,0.42l0.08,2.24c0.1,2.76,0.18,4.83,0.25,7.99c0.05,6.04,0.05,9.35,0,15.4
		c-0.08,3.17-0.15,5.24-0.25,7.99l-0.08,2.24c0,0.15,0.05,0.31,0.16,0.42c0.11,0.11,0.26,0.17,0.41,0.17h3.97
		c0.15,0,0.3-0.06,0.41-0.17c0.11-0.11,0.17-0.26,0.16-0.42c-0.04-1.22-0.09-2.28-0.13-3.27c-0.09-2.25-0.17-4.2-0.21-6.95
		c0-0.68-0.01-1.31-0.02-1.92c-0.01-0.51-0.02-1.01-0.02-1.49c0.38-0.81,0.74-1.56,1.1-2.24c0,0,0.01,0.01,0.01,0.02
		c3.86,5.31,7.45,10.92,10.75,16.19c0.11,0.17,0.29,0.27,0.49,0.27h3.97c0.22,0,0.41-0.12,0.51-0.31
		C206.71,49.96,206.69,49.73,206.57,49.56z M196.34,28.02c0.65,0,1,0.25,1.03,0.74c0.09,1.16-1.58,3.6-6,4.32
		C193.26,29.68,194.89,28.02,196.34,28.02z"/>
	<path d="M88.99,38.58c-6.44-1.47-9.18-2.55-12.71-6.02c-1.39-1.37-2.59-2.84-3.57-4.37c6.22-3.69,10.51-10.48,11.07-17.7
		c0.12-1.55,0.11-3.8-1.33-5.54c-1.12-1.35-2.7-1.91-4.36-1.91c-1.79,0-3.68,0.66-5.17,1.7c-4.62,3.21-7.22,9.27-6.61,15.43
		c0.22,2.19,0.81,4.39,1.76,6.51c-5.54,2.05-12.04,1.44-17.05-1.73c-1.85-1.17-3.53-2.66-5.31-4.24c-3.19-2.84-6.5-5.77-10.9-6.72
		c-4.56-0.99-9.54,0.27-13,3.27c-7.9,6.86-9.41,17.39-4.51,31.33c-4.51-0.86-10.3,0.33-14.18,1.92c7.91,1.77,15.64,5.21,21.64,10.86
		c-0.32-8.19,2.73-16.12,6.4-23.36c-3.92,2.14-8.33,5.19-10.79,9.13c-4.25-12.34-3.02-21.52,3.66-27.33
		c2.67-2.32,6.54-3.29,10.07-2.52c3.54,0.77,6.37,3.28,9.37,5.95c1.8,1.6,3.66,3.25,5.74,4.57c6.01,3.81,13.84,4.49,20.45,1.88
		c1.15,1.86,2.58,3.64,4.25,5.28c4.14,4.07,7.61,5.37,14.32,6.9c0.91,0.21,1.81-0.36,2.02-1.27C90.47,39.7,89.9,38.79,88.99,38.58z
		 M69.67,19.85c-0.49-4.96,1.54-9.8,5.18-12.32c1.64-1.14,4.04-1.57,5.01-0.4c0.49,0.59,0.68,1.61,0.56,3.11
		c-0.47,6.1-4.07,11.84-9.3,14.99C70.34,23.45,69.85,21.64,69.67,19.85z"/>
</g>
</svg>
