<?xml version="1.0" encoding="utf-8"?>
<!-- Generator: Adobe Illustrator 25.4.1, SVG Export Plug-In . SVG Version: 6.00 Build 0)  -->
<svg version="1.1" id="Layer_1" xmlns="http://www.w3.org/2000/svg" xmlns:xlink="http://www.w3.org/1999/xlink" x="0px" y="0px"
	 viewBox="0 0 357.6 357.6" style="enable-background:new 0 0 357.6 357.6;" xml:space="preserve">
<g>
	<path d="M56.31,101.26h0.27l24.58-38.62h21.07l-26.2,41.32l29.17,55.1H83.32l-19.85-39.57l-7.16,10.94v28.63H36.86V62.63h19.45
		V101.26z"/>
	<path d="M124.78,131.37c0,2.16,0.16,4.25,0.47,6.28c0.31,2.03,0.83,3.83,1.55,5.4c0.72,1.58,1.66,2.84,2.84,3.78
		c1.17,0.95,2.61,1.42,4.32,1.42c3.15,0,5.45-1.12,6.89-3.38c1.44-2.25,2.43-5.67,2.97-10.26h16.74c-0.36,8.46-2.61,14.9-6.75,19.31
		c-4.14,4.41-10.67,6.62-19.58,6.62c-6.75,0-12.02-1.13-15.8-3.38c-3.78-2.25-6.57-5.22-8.37-8.91c-1.8-3.69-2.9-7.83-3.31-12.42
		c-0.41-4.59-0.61-9.18-0.61-13.77c0-4.86,0.34-9.54,1.01-14.05c0.67-4.5,2.02-8.51,4.05-12.02c2.03-3.51,4.93-6.3,8.71-8.37
		c3.78-2.07,8.82-3.11,15.13-3.11c5.4,0,9.84,0.88,13.3,2.63c3.46,1.76,6.19,4.23,8.17,7.43c1.98,3.2,3.33,7.07,4.05,11.61
		c0.72,4.55,1.08,9.61,1.08,15.19v4.19h-36.87V131.37z M143.28,107.13c-0.27-2.11-0.74-3.92-1.42-5.4
		c-0.67-1.49-1.62-2.61-2.84-3.38c-1.22-0.76-2.77-1.15-4.66-1.15c-1.89,0-3.44,0.43-4.66,1.28c-1.22,0.86-2.18,1.98-2.9,3.38
		c-0.72,1.4-1.24,2.95-1.55,4.66c-0.32,1.71-0.47,3.42-0.47,5.13v2.84h19.04C143.73,111.7,143.55,109.25,143.28,107.13z"/>
	<path d="M185.01,137.72c0,3.15,0.83,5.7,2.5,7.63c1.66,1.94,4.07,2.9,7.22,2.9c2.88,0,5.18-0.72,6.89-2.16
		c1.71-1.44,2.57-3.6,2.57-6.48c0-2.34-0.67-4.12-2.03-5.33c-1.35-1.22-2.93-2.18-4.73-2.9l-13.1-4.73c-5.13-1.8-9-4.34-11.61-7.63
		c-2.61-3.29-3.92-7.5-3.92-12.63c0-2.97,0.49-5.78,1.49-8.44c0.99-2.65,2.57-4.97,4.73-6.95c2.16-1.98,4.93-3.56,8.31-4.73
		c3.38-1.17,7.45-1.75,12.22-1.75c8.46,0,14.72,1.8,18.77,5.4c4.05,3.6,6.08,8.69,6.08,15.26v2.97h-16.75
		c0-3.78-0.61-6.55-1.82-8.31s-3.36-2.63-6.42-2.63c-2.34,0-4.39,0.65-6.14,1.96c-1.76,1.31-2.63,3.26-2.63,5.87
		c0,1.8,0.56,3.42,1.69,4.86c1.13,1.44,3.26,2.66,6.42,3.65l11.21,3.78c5.85,1.98,9.99,4.57,12.42,7.76
		c2.43,3.2,3.65,7.54,3.65,13.03c0,3.87-0.67,7.23-2.02,10.06c-1.35,2.84-3.22,5.2-5.6,7.09c-2.39,1.89-5.22,3.24-8.51,4.05
		c-3.29,0.81-6.91,1.22-10.87,1.22c-5.22,0-9.57-0.5-13.03-1.49c-3.47-0.99-6.21-2.48-8.24-4.46c-2.03-1.98-3.44-4.39-4.25-7.23
		c-0.81-2.84-1.22-6.01-1.22-9.52v-2.57h16.74V137.72z"/>
	<path d="M231.2,106.93c0-4.23,0.67-7.76,2.02-10.6c1.35-2.84,3.17-5.13,5.47-6.89c2.3-1.76,5-3.02,8.1-3.78
		c3.11-0.76,6.42-1.15,9.93-1.15c5.58,0,10.08,0.54,13.51,1.62c3.42,1.08,6.08,2.61,7.97,4.59c1.89,1.98,3.17,4.34,3.85,7.09
		c0.67,2.75,1.01,5.74,1.01,8.98v38.22c0,3.42,0.16,6.08,0.47,7.97c0.31,1.89,0.92,3.92,1.82,6.08h-17.83
		c-0.63-1.17-1.1-2.41-1.42-3.71c-0.32-1.3-0.61-2.59-0.88-3.85h-0.27c-2.16,3.78-4.66,6.24-7.5,7.36
		c-2.83,1.12-6.5,1.69-11.01,1.69c-3.24,0-5.99-0.56-8.24-1.69c-2.25-1.12-4.05-2.68-5.4-4.66c-1.35-1.98-2.34-4.21-2.97-6.68
		c-0.63-2.48-0.94-4.93-0.94-7.36c0-3.42,0.36-6.37,1.08-8.85c0.72-2.48,1.83-4.59,3.31-6.35c1.49-1.76,3.38-3.22,5.67-4.39
		c2.3-1.17,5.06-2.21,8.31-3.11l10.53-2.84c2.79-0.72,4.73-1.71,5.81-2.97c1.08-1.26,1.62-3.11,1.62-5.54
		c0-2.79-0.65-4.97-1.96-6.55c-1.31-1.57-3.53-2.36-6.69-2.36c-2.88,0-5.04,0.86-6.48,2.57c-1.44,1.71-2.16,4.01-2.16,6.89v2.03
		H231.2V106.93z M261.18,125.09c-1.44,0.59-2.75,1.01-3.92,1.28c-3.78,0.81-6.48,2.16-8.1,4.05c-1.62,1.89-2.43,4.46-2.43,7.7
		c0,2.79,0.54,5.18,1.62,7.16c1.08,1.98,2.88,2.97,5.4,2.97c1.26,0,2.57-0.2,3.92-0.61c1.35-0.41,2.59-1.06,3.71-1.96
		c1.12-0.9,2.05-2.07,2.77-3.51c0.72-1.44,1.08-3.15,1.08-5.13v-14.32C263.97,123.72,262.62,124.51,261.18,125.09z"/>
	<path d="M315.19,159.06h-17.83v-21.07h17.83V159.06z"/>
	<path d="M59.01,178.15v20.8h10.8v12.69h-10.8v39.3c0,2.88,0.43,4.93,1.28,6.15c0.85,1.22,2.63,1.82,5.33,1.82
		c0.72,0,1.44-0.02,2.16-0.07c0.72-0.04,1.4-0.11,2.03-0.2v12.97c-2.07,0-4.08,0.07-6.01,0.2c-1.94,0.13-3.98,0.2-6.15,0.2
		c-3.6,0-6.55-0.25-8.84-0.74c-2.3-0.49-4.05-1.49-5.27-2.97c-1.22-1.49-2.05-3.44-2.5-5.87c-0.45-2.43-0.68-5.49-0.68-9.18v-41.6
		h-9.45v-12.69h9.45v-20.8H59.01z"/>
	<path d="M75.35,218.8c0.99-4.77,2.61-8.76,4.86-11.95c2.25-3.2,5.2-5.63,8.84-7.29c3.65-1.66,8.12-2.5,13.44-2.5
		c5.58-0.09,10.22,0.65,13.91,2.23c3.69,1.58,6.62,3.98,8.78,7.23c2.16,3.24,3.69,7.25,4.59,12.02c0.9,4.77,1.35,10.35,1.35,16.75
		c0,6.21-0.5,11.71-1.49,16.48c-0.99,4.77-2.61,8.76-4.86,11.95c-2.25,3.2-5.2,5.56-8.85,7.09c-3.65,1.53-8.13,2.3-13.44,2.3
		c-5.58,0.09-10.22-0.61-13.91-2.09c-3.69-1.49-6.62-3.83-8.78-7.02c-2.16-3.19-3.69-7.2-4.59-12.02
		c-0.9-4.81-1.35-10.38-1.35-16.68C73.87,229.06,74.36,223.57,75.35,218.8z M92.77,245.54c0.18,3.15,0.61,5.85,1.28,8.1
		c0.68,2.25,1.69,4.01,3.04,5.27c1.35,1.26,3.15,1.89,5.4,1.89c3.78,0,6.39-1.98,7.83-5.94c1.44-3.96,2.16-10.49,2.16-19.58
		c0-9.09-0.72-15.62-2.16-19.58c-1.44-3.96-4.05-5.94-7.83-5.94c-2.25,0-4.05,0.63-5.4,1.89c-1.35,1.26-2.36,3.02-3.04,5.27
		c-0.67,2.25-1.1,4.95-1.28,8.1c-0.18,3.15-0.27,6.57-0.27,10.26C92.5,238.96,92.59,242.39,92.77,245.54z"/>
	<path d="M178.12,263.9c-2.07,3.42-4.39,5.81-6.96,7.16c-2.56,1.35-5.74,2.03-9.52,2.03c-7.65,0-13.28-2.92-16.88-8.78
		c-3.6-5.85-5.4-15.53-5.4-29.04c0-13.5,1.8-23.25,5.4-29.24c3.6-5.99,9.23-8.98,16.88-8.98c3.51,0,6.5,0.72,8.98,2.16
		c2.48,1.44,4.7,3.6,6.68,6.48h0.27v-30.52h18.63v96.42h-17.83v-7.7H178.12z M159.82,253.17c1.22,4.01,3.85,6.01,7.9,6.01
		c4.14,0,6.82-2,8.04-6.01c1.22-4.01,1.82-9.97,1.82-17.89c0-7.92-0.61-13.89-1.82-17.89c-1.22-4.01-3.9-6.01-8.04-6.01
		c-4.05,0-6.68,2-7.9,6.01c-1.22,4.01-1.82,9.97-1.82,17.89C158,243.19,158.61,249.16,159.82,253.17z"/>
	<path d="M208.51,219.47c0-4.23,0.67-7.76,2.02-10.6c1.35-2.84,3.17-5.13,5.47-6.89c2.3-1.76,5-3.02,8.1-3.78
		c3.11-0.76,6.42-1.15,9.93-1.15c5.58,0,10.08,0.54,13.51,1.62c3.42,1.08,6.08,2.61,7.97,4.59c1.89,1.98,3.17,4.34,3.85,7.09
		c0.67,2.75,1.01,5.74,1.01,8.98v38.22c0,3.42,0.16,6.08,0.47,7.97c0.31,1.89,0.92,3.92,1.82,6.08h-17.83
		c-0.63-1.17-1.1-2.41-1.42-3.71c-0.32-1.3-0.61-2.59-0.88-3.85h-0.27c-2.16,3.78-4.66,6.24-7.5,7.36
		c-2.83,1.13-6.5,1.69-11.01,1.69c-3.24,0-5.99-0.56-8.24-1.69c-2.25-1.12-4.05-2.68-5.4-4.66c-1.35-1.98-2.34-4.21-2.97-6.69
		c-0.63-2.48-0.94-4.93-0.94-7.36c0-3.42,0.36-6.37,1.08-8.85c0.72-2.48,1.83-4.59,3.31-6.35c1.49-1.76,3.38-3.22,5.67-4.39
		c2.3-1.17,5.06-2.21,8.31-3.11l10.53-2.84c2.79-0.72,4.73-1.71,5.81-2.97c1.08-1.26,1.62-3.11,1.62-5.54
		c0-2.79-0.65-4.97-1.96-6.55c-1.31-1.57-3.53-2.36-6.69-2.36c-2.88,0-5.04,0.86-6.48,2.57c-1.44,1.71-2.16,4.01-2.16,6.89v2.03
		h-16.74V219.47z M238.49,237.63c-1.44,0.59-2.75,1.01-3.92,1.28c-3.78,0.81-6.48,2.16-8.1,4.05c-1.62,1.89-2.43,4.46-2.43,7.7
		c0,2.79,0.54,5.18,1.62,7.16c1.08,1.98,2.88,2.97,5.4,2.97c1.26,0,2.57-0.2,3.92-0.61c1.35-0.4,2.59-1.06,3.71-1.96
		c1.12-0.9,2.05-2.07,2.77-3.51c0.72-1.44,1.08-3.15,1.08-5.13v-14.32C241.28,236.26,239.93,237.05,238.49,237.63z"/>
	<path d="M278.46,281.46c3.42,0,5.87-0.9,7.36-2.7c1.49-1.8,2.36-4.19,2.63-7.16l-20.39-72.66h19.45l10.8,50.24h0.27l9.45-50.24
		h18.64l-17.56,67.8c-1.62,6.03-3.17,10.91-4.66,14.65c-1.49,3.73-3.24,6.62-5.27,8.64c-2.03,2.03-4.46,3.35-7.29,3.99
		c-2.84,0.63-6.42,0.94-10.74,0.94h-7.56v-13.91C275.22,281.32,276.84,281.46,278.46,281.46z"/>
</g>
</svg>
