<?xml version="1.0" encoding="utf-8"?>
<!-- Generator: Adobe Illustrator 25.4.1, SVG Export Plug-In . SVG Version: 6.00 Build 0)  -->
<svg version="1.1" id="Layer_1" xmlns="http://www.w3.org/2000/svg" xmlns:xlink="http://www.w3.org/1999/xlink" x="0px" y="0px"
	 viewBox="0 0 162.49 59.55" style="enable-background:new 0 0 162.49 59.55;" xml:space="preserve">
<g>
	<g>
		<path d="M23.27,27.71c-0.77,0-1.3-0.1-1.59-0.31c-0.3-0.21-0.6-0.54-0.91-0.98c-0.07-0.11-2.01-2.72-5.8-7.84l-4-5.41
			c-0.8-1.14-1.33-1.7-1.58-1.7c-0.1,0-0.21,0.1-0.32,0.3c-0.12,0.2-0.18,0.88-0.18,2.04v9.54c0,0.57,0.12,0.96,0.35,1.17
			c0.23,0.21,0.49,0.37,0.76,0.47c0.27,0.1,0.5,0.23,0.69,0.39c0.19,0.15,0.28,0.43,0.28,0.82c0,0.42-0.15,0.78-0.44,1.07
			c-0.3,0.3-0.65,0.44-1.07,0.44H5.32c-0.42,0-0.78-0.15-1.07-0.44c-0.3-0.3-0.44-0.65-0.44-1.07c0-0.46,0.1-0.77,0.29-0.93
			c0.19-0.16,0.42-0.28,0.7-0.36c0.27-0.08,0.52-0.22,0.75-0.43c0.23-0.2,0.34-0.61,0.34-1.23V8.61c0-0.69-0.11-1.16-0.34-1.41
			C5.3,6.95,5.05,6.77,4.79,6.65c-0.27-0.12-0.5-0.27-0.7-0.47c-0.2-0.2-0.3-0.57-0.3-1.11c0-0.41,0.15-0.76,0.44-1.06
			c0.3-0.3,0.65-0.44,1.07-0.44H8.1c1.05,0,1.87,0.05,2.46,0.16c0.59,0.11,1.06,0.32,1.41,0.63c0.35,0.31,0.72,0.78,1.13,1.38
			l6.36,8.67c0.93,1.33,1.52,2,1.78,2c0.12,0,0.24-0.13,0.34-0.38c0.11-0.25,0.16-1.02,0.16-2.29V8.03c0-0.44-0.1-0.76-0.3-0.95
			c-0.2-0.19-0.43-0.33-0.7-0.44c-0.27-0.1-0.52-0.26-0.73-0.47c-0.22-0.21-0.32-0.58-0.32-1.11c0-0.41,0.15-0.76,0.44-1.06
			c0.29-0.3,0.65-0.44,1.07-0.44h4.15c0.41,0,0.76,0.15,1.06,0.44c0.3,0.3,0.44,0.65,0.44,1.06c0,0.63-0.11,1.05-0.34,1.25
			c-0.23,0.2-0.48,0.35-0.74,0.44c-0.27,0.09-0.49,0.21-0.69,0.36c-0.19,0.15-0.29,0.46-0.29,0.92v17.88c0,0.53-0.06,0.93-0.19,1.19
			c-0.12,0.26-0.3,0.43-0.52,0.5C23.85,27.67,23.58,27.71,23.27,27.71z"/>
		<path d="M43.56,27.71c-0.84,0-1.3-0.42-1.37-1.26c-0.07-0.51-0.2-0.77-0.37-0.78c-0.17,0-0.43,0.13-0.78,0.39
			c-1.54,1.1-3.29,1.65-5.23,1.65c-1.89,0-3.45-0.58-4.69-1.74c-0.98-0.98-1.57-2.04-1.78-3.21c-0.16-0.93-0.24-1.88-0.24-2.87
			c0-0.25,0.01-0.5,0.02-0.75c0.01-0.25,0.02-0.79,0.02-1.6h-0.07c-0.11-1.11-0.53-1.81-1.24-2.09c-1.06-0.46-1.59-1.06-1.59-1.82
			c0-0.67,0.54-1.19,1.61-1.58c3.94-1.21,6.31-1.82,7.1-1.82c0.65,0,1.07,0.23,1.23,0.68c0.17,0.45,0.25,1.26,0.25,2.44
			c0,2.79-0.01,4.94-0.02,6.45c0,1.05,0.1,1.87,0.32,2.45c0.35,0.99,1.13,1.48,2.35,1.48c1.46,0,2.38-0.74,2.76-2.22
			c0.19-0.72,0.28-1.83,0.28-3.35c0-0.53-0.05-1.13-0.16-1.79c-0.1-0.66-0.5-1.15-1.18-1.47c-1.05-0.44-1.58-1.04-1.58-1.8
			c0-0.67,0.54-1.19,1.61-1.58c1.66-0.54,3.33-1.03,5.02-1.45c0.89-0.26,1.58-0.39,2.08-0.39c0.64,0,1.06,0.24,1.24,0.72
			c0.16,0.43,0.24,1.28,0.24,2.54c-0.02,1.82-0.04,3.43-0.04,4.86v1.22c0,0.8,0.08,1.52,0.23,2.15c0.15,0.63,0.52,1.07,1.1,1.33
			c1.06,0.47,1.59,1.07,1.59,1.8c0,0.68-0.54,1.21-1.61,1.59c-0.32,0.09-0.63,0.18-0.93,0.28c-1.25,0.41-2.59,0.79-4.02,1.15
			C44.79,27.58,44.07,27.71,43.56,27.71z"/>
		<path d="M62.24,27.99c-1.83,0-3.5-0.41-5-1.22c-1.51-0.82-2.71-1.9-3.6-3.26c-0.89-1.36-1.33-2.87-1.33-4.54
			c0-1.66,0.44-3.17,1.33-4.53c0.89-1.37,2.09-2.45,3.6-3.26c1.51-0.81,3.18-1.21,5-1.21c1.45,0,2.78,0.18,3.99,0.54
			c1.22,0.36,2.19,0.91,2.93,1.65c0.74,0.74,1.1,1.67,1.1,2.78c0,0.82-0.29,1.51-0.86,2.08s-1.27,0.86-2.08,0.86
			c-0.85,0-1.54-0.26-2.08-0.79c-0.53-0.52-0.8-1.19-0.8-1.98c0-0.8-0.23-1.39-0.69-1.77c-0.46-0.38-0.98-0.57-1.58-0.57
			c-0.64,0-1.2,0.18-1.67,0.55c-0.47,0.36-0.83,0.85-1.08,1.45c-0.25,0.6-0.38,1.24-0.38,1.94c0,1.14,0.23,2.11,0.7,2.93
			c0.47,0.82,1.09,1.46,1.85,1.93c1.02,0.66,2.17,0.98,3.45,0.98c1.57,0,2.92-0.49,4.06-1.46c0.32-0.25,0.63-0.37,0.93-0.37
			c0.51,0,0.86,0.27,1.07,0.82c0.05,0.14,0.07,0.28,0.07,0.43c0,0.28-0.09,0.59-0.28,0.93C68.9,26.28,66.01,27.99,62.24,27.99z"/>
		<path d="M81.33,27.71H72.4c-1.29,0-1.93-0.45-1.93-1.35c0-0.4,0.14-0.7,0.43-0.93c0.28-0.22,0.67-0.41,1.17-0.57
			c0.74-0.32,1.12-1.04,1.15-2.17c0-1.26,0.02-3.42,0.06-6.47c0-1.94,0-3.3-0.01-4.1c-0.01-0.79-0.1-1.44-0.29-1.94
			c-0.19-0.5-0.7-0.92-1.54-1.27c-1.06-0.46-1.59-1.06-1.59-1.8c0-0.67,0.54-1.2,1.61-1.59c0.32-0.09,0.64-0.18,0.95-0.28
			c1.46-0.48,2.93-0.91,4.41-1.28c1.09-0.27,1.9-0.41,2.43-0.41s0.88,0.26,1.06,0.78c0.15,0.47,0.22,1.25,0.22,2.33v16.01
			c0.02,1.12,0.41,1.85,1.17,2.17c0.48,0.16,0.86,0.35,1.15,0.57c0.28,0.22,0.43,0.53,0.43,0.93
			C83.26,27.26,82.62,27.71,81.33,27.71z"/>
		<path d="M92.89,27.99c-1.83,0-3.5-0.41-5-1.22c-1.51-0.82-2.71-1.9-3.6-3.26c-0.9-1.36-1.34-2.87-1.34-4.54
			c0-1.66,0.45-3.17,1.34-4.53c0.9-1.37,2.1-2.45,3.6-3.26c1.51-0.81,3.18-1.21,5-1.21c1.68,0,3.07,0.26,4.18,0.77
			c1.11,0.51,1.96,1.22,2.57,2.13c0.61,0.91,0.99,1.96,1.17,3.16c0.04,0.23,0.06,0.45,0.06,0.65c0,0.49-0.12,0.93-0.35,1.3
			c-0.23,0.37-0.62,0.63-1.16,0.79c-0.54,0.15-1.13,0.23-1.77,0.23h-5.71c-0.9,0-1.35,0.19-1.35,0.57c0,0.23,0.2,0.59,0.61,1.06
			c1.23,1.28,2.75,1.93,4.56,1.93c1.51,0,2.87-0.49,4.08-1.48c0.32-0.25,0.63-0.37,0.93-0.37c0.52,0,0.87,0.27,1.06,0.82
			c0.05,0.15,0.07,0.3,0.07,0.44c0,0.28-0.09,0.59-0.26,0.91C99.55,26.28,96.66,27.99,92.89,27.99z M93.77,16.48
			c1.06,0,1.59-0.35,1.59-1.06c0-0.19-0.03-0.41-0.09-0.67c-0.35-1.33-1.22-2-2.61-2c-1.19,0-2.04,0.62-2.56,1.85
			c-0.19,0.43-0.28,0.78-0.28,1.04c0,0.06,0.02,0.17,0.05,0.33c0.03,0.16,0.19,0.28,0.49,0.37c0.3,0.09,0.69,0.13,1.17,0.13H93.77z"
			/>
		<path d="M108.24,27.93c-1.1,0-2.02-0.22-2.77-0.67c-0.75-0.44-1.3-1.02-1.66-1.71c-0.36-0.7-0.54-1.44-0.54-2.23
			c0-1.07,0.34-2.08,1.02-3.02c0.68-0.94,1.69-1.64,3.02-2.09c0.58-0.19,1.17-0.34,1.76-0.46c0.99-0.19,1.96-0.49,2.91-0.93
			c1.02-0.51,1.54-1.25,1.54-2.22c-0.07-1.47-0.59-2.2-1.56-2.2c-1.04,0-1.58,0.67-1.63,2.02c0,0.69-0.23,1.27-0.69,1.72
			c-0.46,0.46-1.06,0.69-1.8,0.69c-0.7,0-1.31-0.25-1.81-0.75c-0.5-0.5-0.75-1.1-0.75-1.81c0-0.96,0.34-1.76,1.02-2.4
			c0.68-0.64,1.56-1.11,2.65-1.43c1.09-0.31,2.26-0.47,3.52-0.47c5.52,0,8.28,2.45,8.28,7.34l0.02,4.28
			c0.01,1.22,0.1,2.06,0.28,2.51s0.42,0.68,0.74,0.68c0.47,0,0.7,0.25,0.7,0.76c0,0.22-0.08,0.49-0.25,0.82
			c-0.17,0.32-0.54,0.63-1.11,0.93c-0.57,0.3-1.38,0.44-2.42,0.44c-1.66,0-2.92-0.31-3.8-0.95c-0.47-0.32-0.88-0.48-1.22-0.48
			s-0.75,0.17-1.22,0.5C111.44,27.55,110.03,27.93,108.24,27.93z M111.41,23.52c0.56,0,0.98-0.13,1.26-0.4
			c0.28-0.27,0.49-0.6,0.61-0.99c0.12-0.4,0.2-0.81,0.24-1.24c-0.01-0.73-0.04-1.19-0.09-1.38c-0.05-0.19-0.19-0.29-0.43-0.29
			c-0.23,0-0.61,0.15-1.12,0.45c-0.51,0.3-0.95,0.65-1.31,1.03c-0.36,0.38-0.54,0.86-0.54,1.45c0,0.37,0.11,0.69,0.32,0.96
			S110.92,23.52,111.41,23.52z"/>
		<path d="M134.37,27.71h-8.93c-1.28,0-1.93-0.45-1.93-1.35c0-0.4,0.14-0.7,0.43-0.93c0.28-0.22,0.67-0.41,1.17-0.57
			c0.74-0.32,1.12-1.04,1.15-2.17c0-0.33,0-0.61,0.01-0.83c0.01-0.22,0.01-0.4,0.01-0.54s0-0.24,0.01-0.31
			c0.01-0.07,0.01-0.12,0.01-0.15c0-0.03,0.01-0.05,0.02-0.06l-0.02-1.89c0-0.8-0.08-1.52-0.23-2.15c-0.15-0.63-0.52-1.07-1.1-1.32
			c-1.05-0.46-1.58-1.07-1.58-1.83c0-0.65,0.53-1.17,1.59-1.56c3.94-1.21,6.31-1.82,7.12-1.82c0.46,0,0.79,0.11,1,0.33
			c0.21,0.22,0.35,0.62,0.41,1.2c0.06,0.58,0.16,0.87,0.3,0.87c0.14,0,0.39-0.22,0.78-0.67c1.35-1.53,2.77-2.3,4.26-2.3
			c0.77,0,1.47,0.14,2.1,0.43c0.64,0.28,1.15,0.71,1.54,1.27c0.39,0.56,0.58,1.26,0.58,2.08c0,1.04-0.37,1.92-1.11,2.66
			c-0.74,0.74-1.63,1.1-2.67,1.1c-0.75,0-1.44-0.2-2.05-0.6c-0.61-0.4-1.07-0.93-1.38-1.58c-0.21-0.42-0.41-0.63-0.61-0.63
			c-0.66,0-1.1,0.46-1.33,1.39c-0.23,0.93-0.35,2.16-0.35,3.69v3.21c0.04,1.12,0.43,1.85,1.17,2.17c0.38,0.15,0.67,0.38,0.87,0.69
			c0.17,0.26,0.26,0.54,0.26,0.83c0,0.04,0,0.15-0.01,0.33c-0.01,0.19-0.13,0.4-0.38,0.64C135.21,27.59,134.85,27.71,134.37,27.71z"
			/>
	</g>
	<g>
		<path d="M15.48,56.07c-2.34,0-4.47-0.56-6.4-1.68c-1.93-1.12-3.47-2.61-4.61-4.48c-1.14-1.87-1.71-3.95-1.71-6.24
			c0-2.27,0.57-4.35,1.71-6.23c1.14-1.88,2.68-3.38,4.61-4.49c1.93-1.12,4.07-1.68,6.4-1.68c1.27,0,2.53,0.19,3.78,0.56
			c0.28,0.07,0.53,0.11,0.74,0.11c0.27,0,0.53-0.06,0.77-0.17c0.24-0.11,0.55-0.17,0.92-0.17c0.51,0,0.98,0.22,1.43,0.67
			c0.44,0.44,0.83,1.01,1.15,1.71c0.54,1.22,0.82,2.46,0.82,3.72c0,0.25-0.03,0.6-0.08,1.07c-0.06,0.46-0.26,0.92-0.6,1.37
			c-0.35,0.45-0.85,0.68-1.52,0.68c-0.7,0-1.31-0.23-1.83-0.7c-0.51-0.47-1.05-1.14-1.62-2c-0.75-1.14-1.5-1.98-2.23-2.54
			c-0.74-0.56-1.55-0.83-2.44-0.83c-1.22,0-2.26,0.53-3.11,1.58c-0.85,1.06-1.28,2.46-1.28,4.22c0,1.54,0.23,2.88,0.7,4
			c0.46,1.12,1.07,2.05,1.83,2.78c0.75,0.73,1.59,1.27,2.5,1.62c0.91,0.35,1.83,0.53,2.74,0.53c1.43,0,2.69-0.44,3.76-1.33
			c0.52-0.49,0.78-0.92,0.78-1.28c0-0.69-0.53-1.04-1.59-1.04h-2.5c-0.42,0-0.78-0.18-1.07-0.54c-0.3-0.36-0.44-0.79-0.44-1.3
			c0-0.51,0.15-0.94,0.44-1.29c0.3-0.35,0.65-0.53,1.07-0.53h8.39c0.41,0,0.76,0.18,1.06,0.53c0.3,0.35,0.44,0.78,0.44,1.29
			c0,2.4-0.52,4.5-1.55,6.31c-1.03,1.81-2.52,3.22-4.46,4.24C20.53,55.56,18.2,56.07,15.48,56.07z"/>
		<path d="M33.6,55.98c-1.1,0-2.02-0.22-2.77-0.67c-0.75-0.44-1.3-1.02-1.66-1.71c-0.36-0.7-0.54-1.44-0.54-2.23
			c0-1.07,0.34-2.08,1.02-3.02c0.68-0.94,1.69-1.64,3.02-2.09c0.58-0.19,1.17-0.34,1.76-0.46c0.99-0.19,1.96-0.49,2.91-0.93
			c1.03-0.51,1.54-1.25,1.54-2.22c-0.07-1.47-0.59-2.2-1.56-2.2c-1.04,0-1.58,0.67-1.63,2.02c0,0.69-0.23,1.27-0.69,1.72
			s-1.06,0.69-1.8,0.69c-0.7,0-1.31-0.25-1.81-0.75c-0.5-0.5-0.75-1.1-0.75-1.81c0-0.96,0.34-1.76,1.02-2.4
			c0.68-0.64,1.56-1.11,2.65-1.43c1.09-0.31,2.26-0.47,3.52-0.47c5.52,0,8.28,2.45,8.28,7.34l0.02,4.28
			c0.01,1.22,0.1,2.06,0.28,2.51c0.17,0.45,0.42,0.68,0.74,0.68c0.47,0,0.7,0.25,0.7,0.76c0,0.22-0.08,0.49-0.25,0.82
			c-0.17,0.32-0.54,0.63-1.11,0.93c-0.57,0.3-1.38,0.44-2.42,0.44c-1.66,0-2.92-0.31-3.8-0.95c-0.47-0.32-0.88-0.48-1.22-0.48
			c-0.35,0-0.75,0.17-1.22,0.5C36.81,55.6,35.4,55.98,33.6,55.98z M36.77,51.57c0.56,0,0.98-0.13,1.26-0.4
			c0.28-0.27,0.49-0.6,0.61-0.99c0.12-0.4,0.2-0.81,0.24-1.24c-0.01-0.73-0.04-1.19-0.09-1.38c-0.05-0.19-0.19-0.29-0.43-0.29
			c-0.23,0-0.61,0.15-1.12,0.45c-0.51,0.3-0.95,0.65-1.31,1.03c-0.36,0.38-0.54,0.86-0.54,1.45c0,0.37,0.11,0.69,0.32,0.96
			C35.94,51.43,36.29,51.57,36.77,51.57z"/>
		<path d="M59.73,55.76H50.8c-1.28,0-1.93-0.45-1.93-1.35c0-0.4,0.14-0.7,0.43-0.93c0.28-0.22,0.67-0.41,1.17-0.57
			c0.74-0.32,1.12-1.04,1.15-2.17c0-0.33,0-0.61,0.01-0.83c0.01-0.22,0.01-0.4,0.01-0.54c0-0.14,0-0.24,0.01-0.31
			c0.01-0.07,0.01-0.12,0.01-0.15c0-0.03,0.01-0.05,0.02-0.06l-0.02-1.89c0-0.8-0.08-1.52-0.23-2.15c-0.15-0.63-0.52-1.07-1.1-1.32
			c-1.05-0.46-1.58-1.07-1.58-1.83c0-0.65,0.53-1.17,1.59-1.56c3.94-1.21,6.31-1.82,7.12-1.82c0.46,0,0.79,0.11,1,0.33
			c0.21,0.22,0.35,0.62,0.41,1.2c0.06,0.58,0.16,0.87,0.3,0.87c0.14,0,0.4-0.22,0.78-0.67c1.35-1.53,2.77-2.3,4.26-2.3
			c0.77,0,1.47,0.14,2.1,0.43c0.64,0.28,1.15,0.71,1.54,1.27c0.39,0.56,0.58,1.26,0.58,2.08c0,1.04-0.37,1.92-1.11,2.66
			c-0.74,0.74-1.63,1.1-2.67,1.1c-0.75,0-1.44-0.2-2.05-0.6c-0.61-0.4-1.07-0.93-1.38-1.58c-0.21-0.42-0.41-0.63-0.61-0.63
			c-0.65,0-1.1,0.46-1.33,1.39c-0.23,0.93-0.35,2.16-0.35,3.69v3.21c0.04,1.12,0.43,1.85,1.17,2.17c0.38,0.15,0.67,0.38,0.87,0.69
			c0.17,0.26,0.26,0.54,0.26,0.83c0,0.04,0,0.15-0.01,0.33c-0.01,0.19-0.13,0.4-0.38,0.64C60.58,55.64,60.22,55.76,59.73,55.76z"/>
		<path d="M88.49,55.76c-0.84,0-1.61-0.07-2.3-0.2c-0.89-0.16-1.77-0.49-2.63-0.98c-0.58-0.31-0.97-0.46-1.17-0.46
			c-0.22,0-0.81,0.25-1.76,0.76c-1.21,0.59-2.77,0.89-4.69,0.89c-1.38,0-2.57-0.32-3.56-0.95c-0.99-0.64-1.77-1.47-2.35-2.51
			c-0.84-1.48-1.26-3.14-1.26-4.97c0-0.73,0.1-1.58,0.3-2.57c0.2-0.98,0.64-1.99,1.32-3.02c0.68-1.03,1.59-1.87,2.72-2.5
			c1.14-0.64,2.5-0.95,4.1-0.95c2.19,0,3.84,0.57,4.97,1.72v-0.13c0-0.64-0.1-1.2-0.29-1.69c-0.19-0.48-0.69-0.89-1.51-1.22
			c-1.06-0.46-1.59-1.06-1.59-1.8c0-0.67,0.54-1.2,1.61-1.59l0.93-0.28c1.47-0.48,2.95-0.91,4.43-1.28
			c1.12-0.27,1.84-0.41,2.15-0.41c0.25,0,0.38,0.01,0.41,0.02c0.48,0,0.8,0.28,0.95,0.85c0.14,0.48,0.2,1.23,0.2,2.24v12.1
			l0.02,2.93c0,1.17,0.07,1.98,0.21,2.41c0.14,0.43,0.5,0.65,1.08,0.65c0.39,0,0.7,0.15,0.91,0.44c0.12,0.19,0.19,0.4,0.19,0.63
			c0,0.12-0.04,0.32-0.11,0.58c-0.07,0.27-0.37,0.55-0.9,0.84C90.33,55.61,89.54,55.76,88.49,55.76z M79.19,51.77
			c0.77,0,1.37-0.18,1.82-0.54c0.8-0.64,1.2-1.69,1.2-3.15v-2.21c0-0.61-0.09-1.18-0.27-1.73c-0.18-0.55-0.49-1-0.93-1.36
			c-0.44-0.36-1.05-0.54-1.83-0.54c-0.74,0-1.33,0.32-1.76,0.96c-0.67,0.99-1,2.25-1,3.8c0,0.47,0.06,1.06,0.17,1.76
			c0.11,0.7,0.39,1.38,0.82,2.03C77.86,51.45,78.45,51.77,79.19,51.77z"/>
		<path d="M101.65,56.03c-1.83,0-3.5-0.41-5-1.22c-1.51-0.82-2.71-1.9-3.6-3.26c-0.9-1.36-1.34-2.87-1.34-4.54
			c0-1.66,0.45-3.17,1.34-4.53c0.9-1.37,2.1-2.45,3.6-3.26c1.51-0.81,3.18-1.21,5-1.21c1.68,0,3.07,0.26,4.18,0.77
			c1.11,0.51,1.96,1.22,2.57,2.13c0.61,0.91,0.99,1.96,1.17,3.16c0.04,0.23,0.06,0.45,0.06,0.65c0,0.49-0.12,0.93-0.35,1.3
			c-0.23,0.37-0.62,0.63-1.16,0.79c-0.54,0.15-1.13,0.23-1.77,0.23h-5.71c-0.9,0-1.35,0.19-1.35,0.57c0,0.23,0.2,0.59,0.61,1.06
			c1.23,1.28,2.75,1.93,4.56,1.93c1.51,0,2.87-0.49,4.08-1.48c0.32-0.25,0.63-0.37,0.93-0.37c0.52,0,0.87,0.27,1.06,0.82
			c0.05,0.15,0.07,0.3,0.07,0.44c0,0.28-0.09,0.59-0.26,0.91C108.31,54.32,105.42,56.03,101.65,56.03z M102.52,44.53
			c1.06,0,1.59-0.35,1.59-1.06c0-0.19-0.03-0.41-0.09-0.67c-0.35-1.33-1.22-2-2.61-2c-1.19,0-2.04,0.62-2.56,1.85
			c-0.19,0.43-0.28,0.78-0.28,1.04c0,0.06,0.02,0.17,0.05,0.33c0.03,0.16,0.19,0.28,0.49,0.37c0.3,0.09,0.69,0.13,1.17,0.13H102.52z
			"/>
		<path d="M135.01,55.76h-8.93c-1.28,0-1.93-0.45-1.93-1.35c0-0.4,0.14-0.7,0.43-0.93c0.28-0.22,0.67-0.41,1.17-0.57
			c0.74-0.32,1.12-1.04,1.15-2.17l0.04-4.56c0-1.04-0.1-1.85-0.3-2.45c-0.36-0.99-1.15-1.48-2.37-1.48c-0.8,0-1.47,0.25-2,0.75
			c-0.53,0.5-0.93,1.11-1.19,1.83c-0.26,0.72-0.39,1.45-0.39,2.18v3.72c0.02,1.12,0.41,1.85,1.15,2.17
			c0.39,0.15,0.69,0.37,0.87,0.66c0.19,0.29,0.28,0.6,0.28,0.92c0,0.01-0.01,0.11-0.02,0.29c-0.01,0.18-0.14,0.39-0.38,0.63
			c-0.24,0.24-0.6,0.36-1.08,0.36h-8.93c-1.29,0-1.93-0.45-1.93-1.35c0-0.4,0.14-0.7,0.43-0.93c0.28-0.22,0.67-0.41,1.17-0.57
			c0.74-0.32,1.12-1.04,1.15-2.17c0-1.05,0.02-1.7,0.06-1.95l-0.02-1.83c0-0.8-0.08-1.52-0.23-2.15c-0.15-0.63-0.52-1.07-1.1-1.32
			c-1.06-0.46-1.59-1.06-1.59-1.82c0-0.67,0.54-1.19,1.61-1.58c3.94-1.21,6.31-1.82,7.12-1.82c0.44,0,0.77,0.1,0.98,0.31
			c0.21,0.2,0.35,0.58,0.41,1.12c0.06,0.69,0.19,1.04,0.37,1.04c0.17,0,0.54-0.23,1.11-0.69c1.64-1.19,3.45-1.78,5.43-1.78
			c1.89,0,3.45,0.57,4.67,1.72c0.99,0.98,1.58,2.05,1.78,3.22c0.16,0.9,0.24,1.82,0.24,2.76c-0.01,0.57-0.02,2.15-0.02,4.74
			c0.02,1.12,0.41,1.85,1.17,2.17c0.48,0.16,0.86,0.35,1.15,0.57c0.28,0.22,0.43,0.53,0.43,0.93
			C136.93,55.31,136.29,55.76,135.01,55.76z"/>
	</g>
</g>
<g>
	<path d="M160.3,34.25l-8.28-1.36c-0.09-0.02-0.14-0.12-0.08-0.2l2.69-3.75c0.16-0.22-0.11-0.49-0.33-0.33l-3.75,2.69
		c-0.08,0.05-0.18,0.01-0.2-0.08l-1.36-14.52c-0.05-0.29-0.46-0.29-0.51,0l-1.36,14.52c-0.02,0.09-0.12,0.14-0.2,0.08l-3.75-2.69
		c-0.22-0.16-0.49,0.11-0.33,0.33l2.69,3.75c0.05,0.08,0.01,0.18-0.08,0.2l-8.28,1.36c-0.29,0.05-0.29,0.46,0,0.51l8.28,1.36
		c0.09,0.02,0.14,0.12,0.08,0.2l-2.69,3.75c-0.16,0.22,0.11,0.49,0.33,0.33l3.75-2.69c0.08-0.05,0.18-0.01,0.2,0.08l1.36,14.52
		c0.05,0.29,0.46,0.29,0.51,0l1.36-14.52c0.02-0.09,0.12-0.14,0.2-0.08l3.75,2.69c0.22,0.16,0.49-0.11,0.33-0.33l-2.69-3.75
		c-0.05-0.08-0.01-0.18,0.08-0.2l8.28-1.36C160.58,34.71,160.58,34.3,160.3,34.25z"/>
</g>
</svg>
